<?xml version="1.0" encoding="utf-8"?>
<!-- Generator: Adobe Illustrator 26.2.1, SVG Export Plug-In . SVG Version: 6.00 Build 0)  -->
<svg version="1.1" id="圖層_1" xmlns="http://www.w3.org/2000/svg" xmlns:xlink="http://www.w3.org/1999/xlink" x="0px" y="0px"
	 viewBox="0 0 51 46.7" style="enable-background:new 0 0 51 46.7;" xml:space="preserve">
<style type="text/css">
	.st0{fill:#333333;}
</style>
<g>
	<path class="st0" d="M50,3.2l-3.9-2.8c-0.6-0.4-1.2-0.5-1.8-0.4c-0.7,0.1-1.2,0.4-1.6,1L26.5,23.7l-9.2-6.6
		c-0.6-0.4-1.2-0.5-1.8-0.4c-0.7,0.1-1.2,0.4-1.6,1l-2.8,3.9c-0.4,0.6-0.5,1.2-0.4,1.8c0.1,0.7,0.4,1.2,1,1.6l15.1,10.8
		c0.6,0.4,1.2,0.5,1.8,0.4c0.7-0.1,1.2-0.4,1.6-1L50.5,6.7c0.4-0.6,0.5-1.2,0.4-1.8C50.9,4.2,50.5,3.6,50,3.2z"/>
	<path class="st0" d="M44.2,22c-0.1,0-0.3-0.1-0.4,0c-0.3,0-0.5,0.2-0.6,0.4l-1.6,2.2c-0.1,0.2-0.2,0.4-0.2,0.7l1.3,7.6
		c0.2,1.3-0.1,2.5-0.9,3.6c-0.8,1.1-1.8,1.8-3.2,2l-25,4.1c-1.3,0.2-2.5-0.1-3.6-0.9c-1.1-0.8-1.8-1.8-2-3.2L4,13.7
		c-0.2-1.3,0.1-2.5,0.9-3.6C5.6,9,6.7,8.3,8,8.1L33,4c0.4-0.1,0.9-0.1,1.4,0c0.1,0,0.2,0,0.3,0c0.3,0,0.5-0.2,0.6-0.4l1.2-1.7
		c0.2-0.3,0.2-0.6,0.1-0.9c-0.1-0.3-0.3-0.5-0.7-0.6c-1.2-0.3-2.4-0.4-3.6-0.2l-25,4.1C5,4.7,3.1,5.8,1.7,7.8
		c-1.4,2-1.9,4.2-1.5,6.5l4.1,25c0.4,2.4,1.6,4.3,3.6,5.7c2,1.4,4.2,1.9,6.5,1.5l25-4.1c2.4-0.4,4.3-1.6,5.7-3.6
		c1.4-2,1.9-4.2,1.5-6.5L45,22.8C44.9,22.4,44.7,22.1,44.2,22z"/>
</g>
</svg>
